<?xml version='1.0' encoding='iso-8859-1'?>
<!DOCTYPE svg PUBLIC '-//W3C//DTD SVG 1.1//EN' 'http://www.w3.org/Graphics/SVG/1.1/DTD/svg11.dtd'>
<svg version="1.1" xmlns="http://www.w3.org/2000/svg" viewBox="0 0 436.645 436.645" xmlns:xlink="http://www.w3.org/1999/xlink" enable-background="new 0 0 436.645 436.645">
  <g>
    <path d="m401.256,35.376c-47.167-47.168-123.915-47.168-171.083,0l-72.042,72.042c-33.055,33.054-42.94,80.635-29.666,122.383l-112.248,112.247c-21.605,21.606-21.605,56.76 0,78.366 10.466,10.466 24.382,16.23 39.183,16.23s28.717-5.764 39.183-16.23l112.249-112.248c11.962,3.803 24.401,5.709 36.841,5.709 30.979,0 61.958-11.792 85.541-35.376l72.042-72.042c47.168-47.165 47.168-123.913 0-171.081zm-320.815,370.896c-13.807,13.808-36.274,13.808-50.081,5.68434e-14-13.808-13.807-13.808-36.274 0-50.081l106.474-106.474c5.493,10.354 12.589,20.074 21.298,28.783 8.709,8.709 18.429,15.806 28.783,21.299l-106.474,106.473zm306.673-213.956l-72.042,72.042c-39.369,39.371-103.429,39.37-142.798,0-39.37-39.369-39.37-103.428 0-142.798l72.042-72.042c19.071-19.072 44.428-29.575 71.399-29.575s52.328,10.503 71.399,29.575c39.369,39.37 39.369,103.429-5.68434e-14,142.798z"/>
    <path d="m371.872,64.759c-30.966-30.966-81.35-30.966-112.315,0l-72.042,72.042c-30.965,30.965-30.965,81.35 0,112.316 15.484,15.485 35.818,23.224 56.158,23.224 20.335,0 40.677-7.743 56.158-23.224l72.042-72.042c30.966-30.965 30.965-81.35-0.001-112.316zm-80.363,171.468l-3.058-4.776c-2.233-3.488-6.872-4.507-10.36-2.272-3.488,2.233-4.506,6.872-2.272,10.36l4.215,6.584c-25.071,17.16-59.666,14.634-81.912-7.612-22.246-22.246-24.772-56.841-7.612-81.912l6.583,4.215c1.252,0.802 2.652,1.185 4.037,1.185 2.471,0 4.892-1.221 6.323-3.457 2.233-3.489 1.216-8.127-2.272-10.36l-4.775-3.057 15.364-15.364 5.837,5.042c1.417,1.225 3.162,1.824 4.899,1.824 2.104,0 4.196-0.88 5.679-2.598 2.708-3.135 2.361-7.871-0.773-10.578l-5.007-4.325 15.476-15.476 4.325,5.007c1.483,1.717 3.575,2.597 5.679,2.597 1.737,0 3.482-0.6 4.899-1.824 3.134-2.708 3.48-7.444 0.773-10.579l-5.042-5.837 15.364-15.364 3.057,4.776c1.432,2.236 3.852,3.457 6.324,3.457 1.384,0 2.785-0.383 4.037-1.185 3.488-2.233 4.506-6.872 2.272-10.36l-4.215-6.584c25.071-17.161 59.666-14.634 81.912,7.612 22.246,22.246 24.772,56.841 7.612,81.912l-6.583-4.215c-3.488-2.232-8.126-1.216-10.36,2.272-2.233,3.488-1.216,8.127 2.272,10.36l4.776,3.057-15.364,15.364-5.837-5.042c-3.135-2.708-7.872-2.362-10.578,0.773-2.708,3.135-2.361,7.871 0.773,10.578l5.007,4.325-15.476,15.476-4.325-5.007c-2.708-3.134-7.444-3.481-10.578-0.773-3.135,2.708-3.481,7.443-0.773,10.578l5.042,5.837-15.365,15.366z"/>
    <path d="m330.191,88.756c0.243,0.023 0.484,0.035 0.724,0.035 3.82,0 7.085-2.905 7.457-6.786l.662-6.91c0.395-4.123-2.627-7.786-6.751-8.181-4.125-0.398-7.786,2.627-8.181,6.751l-.662,6.91c-0.395,4.124 2.628,7.786 6.751,8.181z"/>
    <path d="m298.126,107.834c0.584,3.695 3.773,6.33 7.399,6.33 0.389,0 0.784-0.03 1.181-0.093 4.091-0.647 6.883-4.488 6.237-8.58l-.853-5.396c-0.647-4.091-4.483-6.881-8.58-6.237-4.091,0.647-6.883,4.488-6.237,8.58l.853,5.396z"/>
    <path d="m280.17,139.536c1.331,0 2.679-0.354 3.898-1.098 3.536-2.157 4.655-6.772 2.498-10.309l-2.367-3.881c-2.157-3.536-6.772-4.654-10.309-2.498-3.536,2.157-4.655,6.772-2.498,10.309l2.367,3.881c1.414,2.317 3.881,3.596 6.411,3.596z"/>
    <path d="m258.695,151.003l-3.881-2.367c-3.535-2.157-8.151-1.038-10.308,2.499-2.157,3.536-1.038,8.151 2.499,10.308l3.881,2.367c1.219,0.744 2.566,1.098 3.897,1.098 2.529,0 4.998-1.279 6.411-3.596 2.156-3.537 1.038-8.152-2.499-10.309z"/>
    <path d="m230.59,175.37l-5.396-.853c-4.092-0.645-7.932,2.146-8.58,6.237-0.646,4.091 2.146,7.933 6.237,8.58l5.396,.853c0.397,0.063 0.791,0.093 1.181,0.093 3.625,0 6.814-2.635 7.399-6.33 0.646-4.092-2.146-7.933-6.237-8.58z"/>
    <path d="m203.332,200.684l-6.91,.662c-4.124,0.395-7.146,4.058-6.751,8.181 0.372,3.88 3.637,6.786 7.457,6.786 0.239,0 0.481-0.011 0.724-0.035l6.91-.662c4.124-0.395 7.146-4.058 6.751-8.181-0.396-4.122-4.057-7.149-8.181-6.751z"/>
    <path d="m355.332,113.227c0.239,0 0.481-0.011 0.724-0.035l6.91-.662c4.123-0.395 7.146-4.058 6.751-8.181s-4.057-7.151-8.181-6.751l-6.91,.662c-4.123,0.395-7.146,4.057-6.751,8.181 0.372,3.88 3.637,6.786 7.457,6.786z"/>
    <path d="m328.799,138.506l5.396,.853c0.396,0.063 0.791,0.093 1.18,0.093 3.626,0 6.815-2.636 7.399-6.331 0.646-4.091-2.146-7.932-6.238-8.579l-5.396-.853c-4.087-0.641-7.932,2.146-8.579,6.238-0.646,4.092 2.147,7.932 6.238,8.579z"/>
    <path d="m304.574,165.24c1.22,0.744 2.567,1.098 3.897,1.098 2.529,0 4.998-1.279 6.411-3.596 2.157-3.537 1.038-8.152-2.499-10.308l-3.881-2.367c-3.539-2.158-8.153-1.038-10.308,2.499-2.157,3.537-1.038,8.152 2.499,10.308l3.881,2.366z"/>
    <path d="m285.629,177.937c-2.157-3.537-6.772-4.656-10.308-2.499-3.536,2.156-4.655,6.771-2.499,10.308l2.367,3.881c1.413,2.317 3.881,3.596 6.411,3.596 1.331,0 2.678-0.354 3.897-1.098 3.536-2.156 4.655-6.771 2.499-10.308l-2.367-3.88z"/>
    <path d="m261.262,206.043c-0.646-4.092-4.492-6.885-8.579-6.238-4.091,0.646-6.884,4.487-6.238,8.579l.853,5.396c0.584,3.695 3.772,6.331 7.399,6.331 0.389,0 0.784-0.03 1.18-0.093 4.091-0.646 6.884-4.487 6.238-8.579l-.853-5.396z"/>
    <path d="m229.197,225.12c-4.124-0.398-7.786,2.627-8.181,6.751l-.662,6.91c-0.395,4.123 2.627,7.786 6.751,8.181 0.243,0.023 0.484,0.035 0.724,0.035 3.82,0 7.085-2.905 7.457-6.786l.662-6.91c0.395-4.124-2.628-7.786-6.751-8.181z"/>
  </g>
</svg>
