<?xml version='1.0' encoding='iso-8859-1'?>
<!DOCTYPE svg PUBLIC '-//W3C//DTD SVG 1.1//EN' 'http://www.w3.org/Graphics/SVG/1.1/DTD/svg11.dtd'>
<svg version="1.1" xmlns="http://www.w3.org/2000/svg" viewBox="0 0 442.019 442.019" xmlns:xlink="http://www.w3.org/1999/xlink" enable-background="new 0 0 442.019 442.019">
  <g>
    <path d="m442.019,98.288c0-2.652-1.054-5.196-2.929-7.071l-88.288-88.288c-3.905-3.905-10.237-3.905-14.143-2.22045e-15l-21.753,21.753-14.289-14.289c-2.929-2.929-7.678-2.929-10.606,0-2.929,2.929-2.929,7.678 0,10.606l14.289,14.289-17.304,17.304-14.289-14.289c-2.929-2.929-7.678-2.929-10.606,0-2.929,2.929-2.929,7.678 0,10.606l14.289,14.289-17.304,17.304-14.289-14.289c-2.929-2.929-7.678-2.929-10.606,0-2.929,2.929-2.929,7.678 0,10.606l14.289,14.289-17.304,17.304-14.289-14.289c-2.929-2.929-7.678-2.929-10.606,0-2.929,2.929-2.929,7.678 0,10.606l14.289,14.289-17.304,17.304-14.289-14.289c-2.929-2.929-7.678-2.929-10.606,0-2.929,2.929-2.929,7.678 0,10.606l14.289,14.289-17.304,17.304-14.289-14.289c-2.929-2.929-7.678-2.929-10.606,0-2.929,2.929-2.929,7.678 0,10.606l14.289,14.289-21.753,21.753c-1.875,1.875-2.929,4.419-2.929,7.071s1.054,5.196 2.929,7.071l17.37,17.37-149.295,149.297c-14.763,14.763-14.763,38.784-3.55271e-15,53.547 7.381,7.381 17.077,11.072 26.773,11.072s19.392-3.691 26.773-11.072l149.295-149.295 17.37,17.37c1.953,1.953 4.512,2.929 7.071,2.929s5.119-0.976 7.071-2.929l21.753-21.752 15.713,15.712c1.464,1.464 3.384,2.197 5.303,2.197s3.839-0.732 5.303-2.197c2.929-2.929 2.929-7.678 0-10.606l-15.713-15.712 17.304-17.304 15.713,15.713c1.464,1.464 3.384,2.197 5.303,2.197s3.839-0.732 5.303-2.197c2.929-2.929 2.929-7.678 0-10.606l-15.713-15.713 17.306-17.305 15.713,15.712c1.464,1.464 3.384,2.197 5.303,2.197s3.839-0.732 5.303-2.197c2.929-2.929 2.929-7.678 0-10.606l-15.713-15.712 17.304-17.304 15.712,15.713c1.464,1.465 3.384,2.197 5.303,2.197 1.919,0 3.839-0.732 5.303-2.197 2.929-2.929 2.929-7.678 0-10.606l-15.712-15.713 17.304-17.304 15.712,15.713c1.464,1.465 3.384,2.197 5.303,2.197 1.919,0 3.839-0.732 5.303-2.197 2.929-2.929 2.929-7.678 0-10.606l-15.712-15.713 17.304-17.304 15.713,15.712c1.464,1.464 3.384,2.197 5.303,2.197s3.839-0.732 5.303-2.197c2.929-2.929 2.929-7.678 0-10.606l-15.713-15.712 21.753-21.752c1.876-1.877 2.93-4.421 2.93-7.073zm-391.543,318.516c-6.963,6.964-18.297,6.965-25.262,0-6.965-6.965-6.965-18.297 0-25.262l149.296-149.295 25.262,25.262-149.296,149.295zm352.719-303.835l-5.745-5.745c-2.929-2.929-7.678-2.929-10.606,0-2.929,2.929-2.929,7.678 0,10.606l5.745,5.745-17.304,17.304-5.745-5.745c-2.928-2.93-7.677-2.929-10.606,0s-2.929,7.678 0,10.606l5.745,5.745-17.304,17.304-5.745-5.745c-2.928-2.929-7.677-2.929-10.606,0-2.929,2.929-2.929,7.678 0,10.606l5.745,5.745-17.305,17.305-5.745-5.745c-2.929-2.929-7.678-2.929-10.606,0-2.929,2.929-2.929,7.678 0,10.606l5.745,5.745-17.304,17.304-5.745-5.745c-2.929-2.929-7.678-2.929-10.606,0-2.929,2.929-2.929,7.678 0,10.606l5.745,5.745-17.304,17.304-5.745-5.745c-2.929-2.929-7.678-2.929-10.606,0-2.929,2.929-2.929,7.678 0,10.606l5.745,5.745-14.681,14.681-74.146-74.145 14.682-14.682 7.169,7.169c1.464,1.464 3.384,2.197 5.303,2.197s3.839-0.732 5.303-2.197c2.929-2.929 2.929-7.678 0-10.606l-7.169-7.169 17.304-17.304 7.169,7.169c1.464,1.464 3.384,2.197 5.303,2.197s3.839-0.732 5.303-2.197c2.929-2.929 2.929-7.678 0-10.606l-7.169-7.169 17.304-17.304 7.169,7.169c1.464,1.464 3.384,2.197 5.303,2.197s3.839-0.732 5.303-2.197c2.929-2.929 2.929-7.678 0-10.606l-7.169-7.169 17.304-17.304 7.169,7.169c1.464,1.464 3.384,2.197 5.303,2.197s3.839-0.732 5.303-2.197c2.929-2.929 2.929-7.678 0-10.606l-7.169-7.169 17.304-17.304 7.169,7.169c1.464,1.464 3.384,2.197 5.303,2.197s3.839-0.732 5.303-2.197c2.929-2.929 2.929-7.678 0-10.606l-7.169-7.169 17.304-17.304 7.169,7.169c1.464,1.464 3.384,2.197 5.303,2.197s3.839-0.732 5.303-2.197c2.929-2.929 2.929-7.678 0-10.606l-7.169-7.169 14.682-14.682 74.146,74.146-14.682,14.681z"/>
    <path d="m360.823,88.697c1.97,0 3.9-0.8 5.3-2.19 1.39-1.4 2.2-3.33 2.2-5.31 0-1.97-0.81-3.91-2.2-5.3-1.4-1.4-3.33-2.2-5.3-2.2-1.98,0-3.91,0.8-5.31,2.2-1.39,1.39-2.19,3.33-2.19,5.3 0,1.98 0.8,3.91 2.19,5.31 1.4,1.39 3.331,2.19 5.31,2.19z"/>
    <path d="m332.913,101.607c-1.98,0-3.91,0.8-5.31,2.2-1.39,1.4-2.2,3.33-2.2,5.3 0,1.98 0.81,3.91 2.2,5.31 1.4,1.39 3.33,2.19 5.31,2.19 1.97,0 3.9-0.8 5.3-2.19 1.39-1.4 2.19-3.33 2.19-5.31 0-1.97-0.8-3.9-2.19-5.3-1.399-1.4-3.329-2.2-5.3-2.2z"/>
    <path d="m305.004,129.517c-1.98,0-3.91,0.8-5.31,2.2-1.39,1.4-2.19,3.33-2.19,5.3 0,1.98 0.8,3.91 2.19,5.31 1.4,1.39 3.33,2.19 5.31,2.19 1.97,0 3.9-0.8 5.3-2.19 1.39-1.4 2.2-3.33 2.2-5.31 0-1.97-0.81-3.9-2.2-5.3-1.4-1.4-3.331-2.2-5.3-2.2z"/>
    <path d="m277.083,157.427c-1.97,0-3.9,0.8-5.3,2.2s-2.2,3.33-2.2,5.3c0,1.98 0.8,3.91 2.2,5.31 1.4,1.39 3.33,2.19 5.3,2.19 1.98,0 3.91-0.8 5.31-2.19 1.39-1.4 2.19-3.33 2.19-5.31 0-1.97-0.8-3.9-2.19-5.3-1.4-1.4-3.329-2.2-5.31-2.2z"/>
    <path d="m249.174,185.337c-1.97,0-3.9,0.8-5.3,2.2-1.39,1.4-2.2,3.33-2.2,5.3 0,1.98 0.81,3.91 2.2,5.31 1.4,1.39 3.33,2.19 5.3,2.19 1.98,0 3.91-0.8 5.31-2.19 1.39-1.4 2.19-3.33 2.19-5.31 0-1.97-0.8-3.9-2.19-5.3-1.401-1.4-3.33-2.2-5.31-2.2z"/>
    <path d="m221.263,213.247c-1.97,0-3.9,0.8-5.3,2.2-1.4,1.4-2.2,3.33-2.2,5.3 0,1.98 0.8,3.91 2.2,5.31 1.4,1.39 3.33,2.19 5.3,2.19 1.98,0 3.91-0.8 5.31-2.19 1.39-1.4 2.2-3.33 2.2-5.31 0-1.97-0.81-3.9-2.2-5.3-1.399-1.4-3.33-2.2-5.31-2.2z"/>
  </g>
</svg>
