<?xml version='1.0' encoding='iso-8859-1'?>
<!DOCTYPE svg PUBLIC '-//W3C//DTD SVG 1.1//EN' 'http://www.w3.org/Graphics/SVG/1.1/DTD/svg11.dtd'>
<svg version="1.1" xmlns="http://www.w3.org/2000/svg" viewBox="0 0 450.479 450.479" xmlns:xlink="http://www.w3.org/1999/xlink" enable-background="new 0 0 450.479 450.479">
  <g>
    <path d="m413.096,99.745h-375.714c-20.612,0-37.382,16.77-37.382,37.383v176.224c0,20.613 16.77,37.382 37.382,37.382h375.714c20.613,0 37.382-16.77 37.382-37.382v-176.224c0.001-20.613-16.769-37.383-37.382-37.383zm-375.714,20h375.714c9.584,0 17.382,7.798 17.382,17.383v46.114h-410.478v-46.114c0-9.585 7.798-17.383 17.382-17.383zm375.714,210.989h-375.714c-9.584,0-17.382-7.798-17.382-17.382v-115.11h410.479v115.11c0,9.584-7.798,17.382-17.383,17.382z"/>
    <path d="m375.232,222.345h-299.985c-4.142,0-7.5,3.358-7.5,7.5v67.286c0,4.142 3.358,7.5 7.5,7.5h299.985c4.142,0 7.5-3.358 7.5-7.5v-67.286c0-4.142-3.358-7.5-7.5-7.5zm-7.5,67.285h-284.985v-52.286h284.985v52.286z"/>
  </g>
</svg>
