<?xml version='1.0' encoding='iso-8859-1'?>
<!DOCTYPE svg PUBLIC '-//W3C//DTD SVG 1.1//EN' 'http://www.w3.org/Graphics/SVG/1.1/DTD/svg11.dtd'>
<svg version="1.1" xmlns="http://www.w3.org/2000/svg" viewBox="0 0 473.832 473.832" xmlns:xlink="http://www.w3.org/1999/xlink" enable-background="new 0 0 473.832 473.832">
  <g>
    <path d="m187.549,345.272c-19.127-9.766-42.63-2.153-52.396,16.972-9.767,19.124-2.152,42.629 16.972,52.396 5.657,2.889 11.694,4.257 17.648,4.257 14.177,0 27.87-7.76 34.748-21.228 4.73-9.264 5.571-19.816 2.365-29.713-3.205-9.897-10.073-17.953-19.337-22.684zm3.613,45.574c-6.005,11.758-20.457,16.439-32.215,10.435-11.759-6.005-16.439-20.457-10.435-32.215 6.004-11.759 20.454-16.44 32.215-10.435 5.696,2.909 9.918,7.861 11.89,13.946 1.97,6.085 1.454,12.573-1.455,18.269z"/>
    <path d="m84.016,221.663c-9.266-4.731-19.815-5.571-29.713-2.366-9.896,3.206-17.951,10.073-22.683,19.338-4.731,9.264-5.571,19.816-2.365,29.712 3.205,9.896 10.072,17.952 19.337,22.683 5.566,2.842 11.596,4.28 17.67,4.28 4.036,0 8.092-0.635 12.042-1.915 9.896-3.206 17.952-10.073 22.684-19.337 4.731-9.264 5.571-19.816 2.365-29.712-3.205-9.896-10.072-17.952-19.337-22.683zm3.612,45.574c-2.908,5.696-7.861,9.918-13.946,11.889-6.082,1.971-12.571,1.455-18.268-1.454-5.696-2.909-9.918-7.862-11.89-13.946-1.971-6.084-1.454-12.572 1.455-18.269 2.908-5.696 7.861-9.918 13.946-11.889 2.442-0.792 4.922-1.167 7.361-1.167 10.103,0 19.519,6.451 22.796,16.568 1.972,6.084 1.456,12.572-1.454,18.268z"/>
    <path d="m471.555,235.152c-9.131-9.211-10.672-16.475-12.453-24.878-2-9.431-4.266-20.121-16.713-32.568-12.444-12.444-23.136-14.709-32.568-16.707-0.594-0.126-1.177-0.25-1.756-0.375l43.643-21.308c3.537-1.728 5.138-5.896 3.664-9.548-1.475-3.652-5.523-5.539-9.267-4.327l-63.55,20.584c-7.349-8.218-8.803-14.997-10.444-22.737-1.998-9.432-4.264-20.123-16.716-32.575-8.137-8.129-15.701-11.949-22.225-14.104l26.021-50.954c1.946-3.812 0.328-8.554-3.735-10.311-3.297-1.425-7.152-0.153-9.219,2.784l-36.553,51.955c-3.445-1.626-7.385-4.192-11.926-8.727-9.303-9.303-10.853-16.611-12.647-25.073-1.986-9.37-4.237-19.983-16.475-32.328-2.723-2.746-7.125-3.242-10.161-0.847-3.597,2.838-3.825,8.073-0.684,11.214 9.303,9.303 10.853,16.611 12.647,25.073 1.999,9.431 4.266,20.12 16.717,32.571 4.51,4.504 8.975,7.922 13.809,10.512l-12.268,17.437c-5.993-1.657-11.635-4.302-18.418-11.08-9.303-9.302-10.853-16.613-12.646-25.077-1.986-9.373-4.237-19.988-16.475-32.334-2.723-2.746-7.125-3.242-10.161-0.847-3.597,2.838-3.825,8.073-0.684,11.214 9.303,9.302 10.853,16.613 12.646,25.077 1.999,9.433 4.266,20.125 16.716,32.576 7.171,7.164 13.781,10.967 19.997,13.3l-60.691,86.264-92.354,29.914c-6.163-13.627-16.667-24.695-30.182-31.597-15.766-8.05-33.722-9.481-50.562-4.025-16.841,5.455-30.549,17.141-38.6,32.906-8.051,15.765-9.48,33.721-4.025,50.562 9.07,28.003 35.128,45.855 63.093,45.855 6.75,0 13.614-1.041 20.374-3.231 16.841-5.455 30.549-17.141 38.6-32.906 6.374-12.482 8.58-26.337 6.522-39.925 9.353,0.085 18.561,1.818 27.216,5.043 12.514,4.664 22.517,14.467 27.254,26.953 0.213,0.562 0.402,1.092 0.561,1.582 3.811,11.764 4.841,24.428 2.994,36.655-30.314-9.632-64.122,3.778-79.056,33.019-15.465,30.285-5.309,67.013 22.4,85.361l-13.238,25.922c-1.83,3.583-0.717,8.104 2.758,10.132 1.201,0.701 2.504,1.031 3.788,1.031 2.729,0 5.359-1.494 6.686-4.09l13.361-26.164c7.566,2.844 15.402,4.212 23.156,4.212 24.124,0 47.427-13.206 59.131-36.124 15.465-30.284 5.309-67.012-22.399-85.36l44.681-87.494 98.437-48.061c11.216,10.048 20.974,12.123 29.663,13.966 8.462,1.794 15.771,3.344 25.074,12.648 9.301,9.296 10.848,16.604 12.64,25.064 1.997,9.432 4.261,20.123 16.71,32.566 1.464,1.463 3.383,2.195 5.302,2.195 1.875,0 3.749-0.699 5.2-2.095 3.01-2.897 2.851-7.937-0.091-10.903-9.13-9.205-10.668-16.468-12.447-24.871-1.997-9.432-4.261-20.122-16.708-32.564-12.448-12.447-23.138-14.714-32.568-16.713-6.143-1.303-11.682-2.492-17.813-6.597l24.38-11.903c6.458,3.291 12.428,4.564 17.795,5.701 8.463,1.793 15.771,3.341 25.069,12.639 9.303,9.303 10.853,16.61 12.646,25.072 2,9.431 4.266,20.121 16.713,32.568 1.465,1.464 3.385,2.197 5.304,2.197 1.874,0 3.749-0.698 5.2-2.095 3.009-2.895 2.851-7.934-0.09-10.901zm-126.763-133.829c9.305,9.304 10.854,16.613 12.646,25.076 1.557,7.348 3.277,15.46 9.847,24.573l-20.995,6.8c-0.655-2.3-1.152-4.624-1.659-7.019-1.997-9.43-4.261-20.117-16.698-32.563-3.675-3.682-7.431-6.695-11.351-9.097l9.661-18.917c5.717,1.553 11.542,4.147 18.549,11.147zm-35.063,21.191c2.555,1.673 5.048,3.729 7.592,6.277 9.297,9.303 10.844,16.61 12.636,25.071 0.588,2.773 1.195,5.601 2.055,8.536l-51.103,16.553 28.82-56.437zm-14.557-5.734c0.192,0.043 0.383,0.089 0.574,0.133l-35.02,68.574-17.993,5.828 52.439-74.535zm-187.659,160.611c-5.621,11.007-15.192,19.167-26.95,22.975-24.272,7.859-50.416-5.489-58.277-29.761-3.81-11.758-2.812-24.295 2.81-35.303 5.621-11.007 15.192-19.167 26.95-22.975 4.694-1.521 9.513-2.274 14.309-2.274 7.216,0 14.382,1.708 20.994,5.085 11.007,5.621 19.166,15.192 22.975,26.95 3.808,11.759 2.81,24.296-2.811,35.303zm242.141-104.941l-160.896,78.557c-9.669-7.364-20.634-12.775-32.245-15.996l193.141-62.561zm-138.609,228.55c-11.604,22.723-39.529,31.767-62.253,20.165-22.722-11.604-31.768-39.531-20.164-62.253 11.604-22.723 39.53-31.767 62.253-20.165 22.723,11.604 31.768,39.53 20.164,62.253zm-5.869-106.734c-0.71-6.365-2.056-12.658-4.029-18.748-1.285-3.968-2.853-7.839-4.645-11.599l32.2-15.722-23.526,46.069z"/>
  </g>
</svg>
