<?xml version='1.0' encoding='iso-8859-1'?>
<!DOCTYPE svg PUBLIC '-//W3C//DTD SVG 1.1//EN' 'http://www.w3.org/Graphics/SVG/1.1/DTD/svg11.dtd'>
<svg version="1.1" xmlns="http://www.w3.org/2000/svg" viewBox="0 0 453.489 453.489" xmlns:xlink="http://www.w3.org/1999/xlink" enable-background="new 0 0 453.489 453.489">
  <g>
    <path d="m389.867,332.55l-122.07-46.473 86.21-86.21c0.482-0.483 0.915-1.015 1.29-1.586l49.159-74.932c2.6-3.962 2.061-9.205-1.29-12.556l-107.863-107.864c-3.353-3.351-8.595-3.889-12.557-1.29l-74.932,49.159c-0.571,0.375-1.103,0.807-1.586,1.29l-172.589,172.589c-13.708,13.708-13.708,36.014-7.10543e-15,49.723l98.056,98.057c6.854,6.854 15.858,10.281 24.861,10.281 3.38,0 6.76-0.483 10.026-1.449l178.811,68.078c7.229,2.752 14.753,4.124 22.263,4.124 8.698,0 17.377-1.84 25.551-5.507 15.232-6.832 26.892-19.187 32.832-34.788 12.261-32.208-3.966-68.385-36.172-80.646zm-45.952-153.381l-116.989-116.99 33.942-22.267 105.315,105.315-22.268,33.942zm-57.001-156.345l96.356,96.357-8.684,13.236-100.909-100.909 13.237-8.684zm-141.076,335.49l-98.056-98.057c-5.911-5.91-5.911-15.527 0-21.438l167.285-167.285 119.494,119.494-167.286,167.286c-5.91,5.911-15.527,5.911-21.437,0zm261.51,47.764c-4.039,10.609-11.968,19.01-22.325,23.656-10.357,4.645-21.902,4.979-32.513,0.94l-166.08-63.23 65.867-65.867 130.454,49.665c21.9,8.337 32.934,32.937 24.597,54.836z"/>
    <path d="m330.346,348.118l-43.08-17.5c-13.024-5.291-27.929,1.001-33.221,14.027s1.001,27.929 14.026,33.222l43.079,17.5c3.134,1.273 6.374,1.875 9.564,1.875 10.074,0 19.638-6.009 23.657-15.902 5.293-13.026-1-27.929-14.025-33.222zm.129,27.576c-1.056,2.598-3.06,4.63-5.644,5.721-2.583,1.09-5.438,1.11-8.034,0.055l-43.079-17.5c-5.364-2.179-7.955-8.315-5.776-13.679 1.655-4.074 5.593-6.548 9.741-6.548 1.313,0 2.648,0.249 3.938,0.772l43.079,17.5c5.362,2.179 7.954,8.316 5.775,13.679z"/>
    <path d="m161.33,197.038c-2.929-2.929-7.678-2.929-10.606,0l-57.272,57.272c-2.929,2.929-2.929,7.678 0,10.606 1.464,1.464 3.384,2.197 5.303,2.197s3.839-0.732 5.303-2.197l57.272-57.272c2.929-2.928 2.929-7.677 0-10.606z"/>
    <path d="m177.239,212.947c-2.928-2.93-7.677-2.929-10.606,0l-57.273,57.272c-2.929,2.929-2.929,7.678 0,10.606 1.464,1.465 3.384,2.197 5.303,2.197s3.839-0.732 5.303-2.197l57.273-57.272c2.929-2.928 2.929-7.677 0-10.606z"/>
    <path d="m193.148,228.856c-2.929-2.929-7.678-2.929-10.606,0l-57.273,57.273c-2.929,2.929-2.929,7.678 0,10.606 1.464,1.464 3.384,2.197 5.303,2.197s3.839-0.732 5.303-2.197l57.273-57.273c2.929-2.928 2.929-7.677 0-10.606z"/>
    <path d="m209.057,244.765c-2.929-2.929-7.678-2.929-10.606,0l-57.273,57.273c-2.929,2.929-2.929,7.678 0,10.606 1.464,1.464 3.384,2.197 5.303,2.197s3.839-0.732 5.303-2.197l57.273-57.273c2.929-2.928 2.929-7.677 0-10.606z"/>
  </g>
</svg>
