<?xml version='1.0' encoding='iso-8859-1'?>
<!DOCTYPE svg PUBLIC '-//W3C//DTD SVG 1.1//EN' 'http://www.w3.org/Graphics/SVG/1.1/DTD/svg11.dtd'>
<svg version="1.1" xmlns="http://www.w3.org/2000/svg" viewBox="0 0 446.845 446.845" xmlns:xlink="http://www.w3.org/1999/xlink" enable-background="new 0 0 446.845 446.845">
  <g>
    <path d="m406.239,40.607c-30.435-30.435-73.394-44.522-120.96-39.668-46.803,4.776-92.577,27.405-128.892,63.72-36.314,36.315-58.944,82.089-63.72,128.892-3.392,33.237 2.476,64.217 16.695,90.253l-98.245,98.246c-7.169,7.169-11.117,16.7-11.117,26.839 0,10.138 3.948,19.67 11.117,26.839s16.7,11.117 26.839,11.117c10.138,0 19.669-3.948 26.839-11.117l98.237-98.237c21.22,11.59 45.726,17.627 72.064,17.627 5.976,0 12.053-0.311 18.199-0.938 46.803-4.776 92.577-27.406 128.892-63.72s58.944-82.089 63.721-128.892c4.852-47.569-9.236-90.526-39.669-120.961zm-355.587,380.978c-3.392,3.391-7.901,5.259-12.697,5.259-4.796,0-9.305-1.868-12.697-5.259-3.391-3.391-5.259-7.9-5.259-12.697 0-4.796 1.868-9.305 5.259-12.696l95.236-95.237c3.623,4.748 7.564,9.279 11.839,13.555 4.275,4.275 8.8,8.222 13.547,11.845l-95.228,95.23zm375.357-262.048c-4.31,42.237-24.896,83.71-57.966,116.78-33.069,33.07-74.542,53.656-116.779,57.966-5.442,0.555-10.805,0.83-16.085,0.83-34.956-0.001-66.026-12.067-88.702-34.744-54.455-54.455-43.666-153.85 24.051-221.567 38.666-38.665 87.651-58.769 132.71-58.769 33.854,0 65.495,11.355 88.857,34.717 26.103,26.101 38.147,63.315 33.914,104.787z"/>
    <path d="m288.966,37.073c-38.511,3.93-76.474,22.848-106.896,53.27-30.422,30.422-49.34,68.385-53.27,106.896-3.724,36.496 6.652,69.023 29.217,91.588 19.559,19.559 46.598,29.959 77.223,29.959 4.707,0 9.503-0.246 14.365-0.742 38.511-3.929 76.474-22.846 106.896-53.269 30.421-30.422 49.34-68.385 53.269-106.895 3.725-36.496-6.651-69.023-29.217-91.589-22.564-22.565-55.084-32.943-91.587-29.218zm-96.289,63.876c27.988-27.988 62.726-45.373 97.813-48.954 31.923-3.257 60.143,5.586 79.458,24.902 11.461,11.461 19.235,26.057 22.982,42.702h-216.585c4.949-6.478 10.4-12.717 16.332-18.65zm-33.952,46.906c2.221-4.488 4.663-8.912 7.324-13.256h229.11c0.336,4.322 0.431,8.744 0.273,13.256h-236.707zm-15.001,50.906c1.234-12.098 4.111-24.154 8.497-35.906h241.807c-2.634,17.493-8.665,34.799-17.691,51.123h-233.245c-0.101-4.961 0.104-10.039 0.632-15.217zm202.172,55.407c-27.988,27.989-62.726,45.374-97.812,48.953-31.916,3.257-60.143-5.585-79.459-24.901-12.938-12.939-21.17-29.876-24.221-49.242h222.599c-6.142,8.839-13.201,17.284-21.107,25.19z"/>
  </g>
</svg>
