<?xml version='1.0' encoding='iso-8859-1'?>
<!DOCTYPE svg PUBLIC '-//W3C//DTD SVG 1.1//EN' 'http://www.w3.org/Graphics/SVG/1.1/DTD/svg11.dtd'>
<svg version="1.1" xmlns="http://www.w3.org/2000/svg" viewBox="0 0 475.482 475.482" xmlns:xlink="http://www.w3.org/1999/xlink" enable-background="new 0 0 475.482 475.482">
  <g>
    <path d="m455.503,127.372l-107.359-107.35c-12.912-12.911-30.076-20.022-48.331-20.022s-35.417,7.111-48.322,20.021l-231.47,231.46c-12.911,12.912-20.021,30.076-20.021,48.332 0,18.256 7.11,35.42 20.021,48.332l107.35,107.35c13.327,13.327 30.826,19.989 48.331,19.988 17.501-0.001 35.007-6.664 48.33-19.987l33.67-33.661c4.804,3.531 10.729,5.623 17.135,5.623 15.99,0 29-13.009 29-29 0-6.408-2.093-12.335-5.626-17.14l157.293-157.284c26.638-26.65 26.638-70.011-0.001-96.662zm-180.665,285.085c-7.72,0-14-6.28-14-14s6.28-14 14-14 14,6.28 14,14-6.28,14-14,14zm166.523-202.565l-160.263,160.253c-2.018-0.446-4.111-0.688-6.26-0.688-15.99,0-29,13.009-29,29 0,2.152 0.243,4.248 0.69,6.268l-36.637,36.628c-18.852,18.852-49.525,18.852-68.377,0l-107.35-107.351c-18.853-18.852-18.853-49.526 0-68.377l231.471-231.463c9.129-9.132 21.267-14.162 34.178-14.162 12.913,0 25.054,5.03 34.188,14.164l107.359,107.349c18.844,18.853 18.844,49.528 0.001,68.379z"/>
    <path d="m311.595,67.088c-7.883-7.882-18.363-12.224-29.511-12.224s-21.628,4.341-29.511,12.224l-185.484,185.484c-16.271,16.272-16.271,42.749 0,59.021l96.835,96.834c7.883,7.883 18.363,12.224 29.511,12.224s21.628-4.341 29.511-12.224l185.484-185.484c16.271-16.271 16.271-42.748 0-59.021l-96.835-96.834zm86.227,145.249l-185.484,185.484c-5.049,5.05-11.763,7.831-18.903,7.831s-13.854-2.781-18.903-7.831l-96.835-96.834c-10.424-10.424-10.424-27.384 0-37.808l185.484-185.484c5.211-5.212 12.058-7.817 18.903-7.817s13.692,2.606 18.903,7.817l96.835,96.834c10.424,10.424 10.424,27.384 0,37.808z"/>
    <path d="m294.549,86.494c-3.33-3.33-7.757-5.163-12.465-5.163s-9.135,1.833-12.465,5.163l-183.124,183.124c-3.329,3.33-5.162,7.756-5.162,12.464 0,4.709 1.833,9.136 5.162,12.465l94.475,94.475c3.437,3.437 7.951,5.155 12.465,5.155s9.028-1.718 12.465-5.155l183.124-183.124c3.329-3.33 5.163-7.756 5.163-12.464 0-4.709-1.834-9.136-5.163-12.465l-94.475-94.475zm-41.609,112.106c5.238,0 9.5,4.262 9.5,9.5s-4.262,9.5-9.5,9.5-9.5-4.262-9.5-9.5 4.262-9.5 9.5-9.5zm18.401-16.317c0-14.359 11.683-26.042 26.042-26.042s26.041,11.682 26.041,26.042-11.682,26.042-26.041,26.042-26.042-11.683-26.042-26.042zm-15,0c0,0.137 0.009,0.271 0.01,0.408-1.797,0.608-3.693,0.933-5.629,0.933-9.672,0-17.54-7.869-17.54-17.54s7.868-17.54 17.54-17.54c6.041,0 11.547,3.095 14.724,8.001-5.688,7.045-9.105,15.998-9.105,25.738zm122.075,13.008l-183.124,183.124c-0.669,0.669-1.451,0.77-1.857,0.77s-1.188-0.1-1.857-0.77l-94.475-94.475c-1.025-1.024-1.025-2.692 0-3.716l122.059-122.059c-0.636,2.536-0.979,5.188-0.979,7.918 0,11.525 6.026,21.664 15.089,27.446-3.028,4.076-4.831,9.114-4.831,14.571 0,13.509 10.99,24.5 24.5,24.5 10.327,0 19.175-6.425 22.774-15.485 6.293,3.929 13.718,6.208 21.668,6.208 22.63,0 41.041-18.411 41.041-41.042s-18.411-41.042-41.041-41.042c-7.462,0-14.458,2.011-20.493,5.506-6.023-8.145-15.657-13.203-26.167-13.203-2.73,0-5.382,0.342-7.918,0.979l37.422-37.421c0.669-0.669 1.451-0.77 1.857-0.77s1.188,0.1 1.857,0.77l94.475,94.475c0.67,0.67 0.771,1.452 0.771,1.858-5.68434e-14,0.407-0.101,1.188-0.771,1.858z"/>
  </g>
</svg>
